<svg xmlns="http://www.w3.org/2000/svg" width="135" height="125" viewBox="0 0 135 125" fill="none">
<path d="M65.8671 0.175462C61.1009 0.932716 57.975 2.41693 55.9169 4.90072C53.7349 7.55111 52.8683 10.3227 53.1624 13.806C53.3635 16.0172 54.0289 17.6983 55.5145 19.6672C57.2013 21.9238 59.5225 23.4989 62.4008 24.3622C63.3447 24.6499 64.0256 24.6953 68.9466 24.7862C74.4401 24.9074 75.5698 25.0134 78.5564 25.6798C86.6806 27.4972 94.9286 32.9191 100.376 40.0373C103.347 43.9145 105.745 48.6094 106.86 52.6835C107.804 56.1668 108.005 57.9237 108.02 62.346C108.02 66.9653 107.788 68.6009 106.689 71.5845C105.56 74.5984 102.867 78.2938 101.149 79.1571C100.314 79.566 100.407 79.6266 97.6212 77.0065C95.5786 75.083 91.8492 71.7208 89.4661 69.6308C88.8625 69.1007 88.0888 68.4192 87.7484 68.1163C87.4079 67.8134 86.3711 66.8895 85.4272 66.0566C82.8274 63.7545 80.63 61.7857 79.1599 60.4529C78.4326 59.7865 77.1172 58.59 76.2197 57.7873C75.3222 56.9998 73.8056 55.6367 72.8307 54.7583C70.7107 52.8803 66.0838 48.8517 61.9984 45.3229C60.3581 43.9145 58.9499 42.6877 58.8416 42.5968C58.7333 42.506 57.9905 41.8547 57.1858 41.1429C55.7312 39.8556 54.2611 38.5531 49.433 34.267C48.0402 33.01 46.5856 31.7227 46.1987 31.3895C45.8119 31.0563 45.0536 30.3747 44.481 29.875C43.924 29.36 42.7169 28.2999 41.7884 27.5123C40.86 26.7248 39.6375 25.6646 39.0804 25.1648C38.5233 24.6651 37.2389 23.5443 36.2175 22.6659C32.9369 19.8186 31.1418 18.2284 29.4087 16.5927C27.3351 14.6239 26.4994 14.0332 25.865 14.0332C24.8591 14.0332 22.6307 15.8809 17.9574 20.5456C14.9088 23.6049 13.3769 25.5132 10.4212 29.9658C5.94899 36.7054 2.31243 45.853 1.02802 53.5619C-0.643246 63.6031 -0.287327 71.9934 2.17315 81.5803C4.33961 89.9858 7.8369 97.0131 13.5316 104.374C19.2418 111.764 27.7064 118.534 35.9854 122.336C42.5622 125.35 47.1272 125.774 51.3054 123.774C53.9825 122.502 56.8453 118.913 57.5262 115.975C58.4083 112.113 57.1084 107.69 54.1682 104.616C52.8529 103.253 51.1352 102.117 48.0093 100.572C44.8834 99.0274 43.6299 98.2702 41.7884 96.8314C38.5852 94.3324 35.2272 90.7279 33.2619 87.6989C32.0858 85.8512 30.3836 82.4435 29.7182 80.5201C28.573 77.2942 28.0159 74.6893 27.6291 70.8121C27.3815 68.4343 27.6445 64.5269 28.2016 62.4975C28.4183 61.7099 28.6349 60.8467 28.7123 60.6043C28.8671 59.9531 30.105 57.5602 30.7704 56.5909C31.4668 55.5762 32.4262 54.304 32.6429 54.092C32.9833 53.7739 33.788 53.259 33.9737 53.259C34.0666 53.259 35.0569 54.1374 36.1866 55.1975C38.1519 57.0755 39.591 58.378 44.0323 62.2703C45.1774 63.2699 47.576 65.4205 49.3556 67.041C51.1506 68.6615 52.9921 70.3275 53.4719 70.7515C53.9361 71.1605 55.5455 72.5992 57.031 73.932C58.5166 75.2648 60.126 76.7036 60.5902 77.1125C62.1841 78.5058 69.5965 85.1545 78.0767 92.7725C79.9027 94.4233 82.1156 96.4073 82.9976 97.1949C86.1545 100.012 87.7019 101.39 91.4623 104.752C93.5669 106.63 96.1976 108.963 97.3117 109.962C98.4414 110.947 100.732 112.991 102.418 114.506C104.105 116.005 105.606 117.308 105.73 117.383C106.055 117.565 107.448 117.535 107.974 117.338C108.19 117.262 109.336 116.475 110.527 115.611C112.879 113.854 117.615 109.311 119.41 107.054C119.951 106.373 120.942 105.146 121.592 104.328C122.257 103.525 122.984 102.556 123.216 102.178C123.449 101.799 124.021 100.921 124.485 100.209C125.677 98.4368 128.06 94.1507 128.679 92.6968C128.958 92.0455 129.561 90.6976 130.01 89.7283C131.263 87.0931 133.12 80.9896 133.863 77.1882C134.822 72.1752 135.086 68.7978 134.977 62.8307C134.9 58.8626 134.822 57.5753 134.497 55.3793C133.461 48.1702 131.511 41.8244 128.462 35.6452C124.671 27.9667 119.998 21.9389 113.189 15.9112C104.693 8.39924 94.1085 3.15904 83.0286 1.00844C78.773 0.175462 77.6124 0.0694312 72.2736 0.00885086C68.4823 -0.0214393 66.8265 0.0240107 65.8671 0.175462Z" fill="url(#paint0_linear_2_33)"/>
<defs>
<linearGradient id="paint0_linear_2_33" x1="70" y1="44.5" x2="70.5089" y2="162" gradientUnits="userSpaceOnUse">
<stop stop-color="#9773CF"/>
<stop offset="1"/>
</linearGradient>
</defs>
</svg>